#!OML:ASF X:\für Bonn\!DataBase\2005_08_10_Bjorn_Final\c3d\bjorn.ASF
:FULLY-SPECIFIED
:DEGREES
295
root -0.527928 16.2168 4.75863 -188.647 38.3028 174.572
lowerback -1.34578 6.59973 -0.99327
upperback 7.13796 10.1886 -5.93696
thorax 9.30052 5.52172 -4.70627
lowerneck 3.59892 2.09736 11.4596
upperneck 7.18163 3.57255 -3.2024
head 1.98019 2.17389 -3.03909
rclavicle -1.07344e-014 -2.70347e-014
rhumerus 76.804 10.8129 -68.7852
rradius 43.1181
rwrist 23.3687
rhand -4.45289 -2.81796
rfingers 7.12502
rthumb 21.319 -31.6653
lclavicle -1.07344e-014 -2.70347e-014
lhumerus 46.5081 -17.5127 85.8398
lradius 65.2345
lwrist 70.1322
lhand -58.8348 19.0493
lfingers 7.12502
lthumb -31.0419 46.4428
rfemur 537.345 -191.992 -542.576
rtibia 61.2053
rfoot -19.2889 31.9025
rtoes -20.4847
lfemur 328.485 -7.14474 342.02
ltibia 74.8008
lfoot -28.5086 10.6232
ltoes -37.9046
296
root -0.522961 16.2493 4.72946 -188.386 38.0758 174.922
lowerback -1.3591 6.54567 -0.982379
upperback 7.26898 10.1068 -5.76236
thorax 9.41059 5.47189 -4.52731
lowerneck 3.40299 2.13765 11.5197
upperneck 7.52558 3.61858 -3.19523
head 2.13576 2.21394 -3.04454
rclavicle -2.54444e-014 6.04305e-014
rhumerus 76.5866 11.0219 -68.6963
rradius 42.8283
rwrist 23.3662
rhand -4.95665 -2.57407
rfingers 7.12502
rthumb 20.8351 -31.4753
lclavicle -2.54444e-014 6.04305e-014
lhumerus 46.4731 -17.5383 85.7703
lradius 64.6797
lwrist 70.2955
lhand -58.5225 18.5489
lfingers 7.12502
lthumb -30.7441 45.9988
rfemur 537.359 -192.097 -542.416
rtibia 60.9851
rfoot -18.4835 32.3814
rtoes -21.7423
lfemur 328.587 -7.40688 342.164
ltibia 74.6468
lfoot -28.4574 10.717
ltoes -37.5946
297
root -0.51711 16.2887 4.70306 -188.001 37.8072 175.429
lowerback -1.36128 6.48374 -0.861129
upperback 7.37087 9.99638 -5.56443
thorax 9.49375 5.41217 -4.3897
lowerneck 3.41124 2.16387 11.5857
upperneck 7.58355 3.66114 -3.18386
head 2.15888 2.24123 -3.05244
rclavicle 7.91163e-014 -3.49861e-014
rhumerus 76.321 11.1935 -68.6769
rradius 42.675
rwrist 23.0223
rhand -5.54631 -2.3519
rfingers 7.12502
rthumb 20.2684 -31.3144
lclavicle 7.91163e-014 -3.49861e-014
lhumerus 46.4253 -17.5906 85.6245
lradius 64.2922
lwrist 70.4504
lhand -58.2516 18.3143
lfingers 7.12502
lthumb -30.4858 45.8125
rfemur 537.419 -192.072 -542.094
rtibia 60.642
rfoot -17.6173 32.8788
rtoes -22.8397
lfemur 328.687 -7.6967 342.477
ltibia 74.4157
lfoot -28.3865 10.7371
ltoes -37.3194
298
root -0.50858 16.333 4.6797 -187.692 37.623 175.917
lowerback -1.28208 6.46962 -0.743008
upperback 7.47205 9.95368 -5.38336
thorax 9.53838 5.38957 -4.2708
lowerneck 3.61978 2.16508 11.7475
upperneck 7.34766 3.68945 -3.21592
head 2.05036 2.25141 -3.09679
rclavicle -1.41137e-014 3.97569e-014
rhumerus 76.0681 11.2888 -68.7722
rradius 42.5418
rwrist 22.7398
rhand -6.3253 -2.10125
rfingers 7.12502
rthumb 19.5196 -31.1414
lclavicle -1.41137e-014 3.97569e-014
lhumerus 46.5364 -17.7121 85.4081
lradius 63.8119
lwrist 70.6097
lhand -57.9049 17.8326
lfingers 7.12502
lthumb -30.1551 45.3917
rfemur 537.539 -192.111 -541.756
rtibia 60.2181
rfoot -16.3048 33.51
rtoes -22.6669
lfemur 328.908 -7.87717 342.806
ltibia 74.1
lfoot -28.3017 10.6608
ltoes -37.0373
299
root -0.497765 16.3822 4.66063 -187.486 37.4992 176.305
lowerback -1.14936 6.47195 -0.7199
upperback 7.59658 9.94795 -5.22248
thorax 9.5691 5.38318 -4.12324
lowerneck 3.82676 2.16678 11.9178
upperneck 6.98509 3.71251 -3.29598
head 1.90136 2.25056 -3.16035
rclavicle 3.47873e-014 1.90833e-014
rhumerus 75.9078 11.3081 -68.8068
rradius 42.4624
rwrist 22.4924
rhand -7.10245 -1.90385
rfingers 7.12502
rthumb 18.7723 -31.018
lclavicle 3.47873e-014 1.90833e-014
lhumerus 46.914 -17.8329 85.1629
lradius 63.0579
lwrist 70.79
lhand -57.4178 16.63
lfingers 7.12502
lthumb -29.6903 44.2729
rfemur 537.707 -192.198 -541.479
rtibia 59.748
rfoot -14.6266 34.1248
rtoes -21.5068
lfemur 329.234 -7.96931 343.069
ltibia 73.6853
lfoot -28.1763 10.6093
ltoes -36.8731
300
root -0.48379 16.4362 4.64522 -187.296 37.3421 176.631
lowerback -0.999327 6.47773 -0.76852
upperback 7.67557 9.94855 -5.09324
thorax 9.53318 5.37582 -3.97522
lowerneck 4.02076 2.15482 12.1535
upperneck 6.68643 3.72332 -3.39017
head 1.77752 2.24872 -3.24167
rclavicle 1.26825e-013 -3.33958e-014
rhumerus 75.7492 11.2787 -68.9623
rradius 42.3585
rwrist 22.4529
rhand -7.744 -1.71267
rfingers 7.12502
rthumb 18.1551 -30.8854
lclavicle 1.26825e-013 -3.33958e-014
lhumerus 47.2584 -17.9868 84.8661
lradius 62.4432
lwrist 71.0847
lhand -56.9616 15.3716
lfingers 7.12502
lthumb -29.2548 43.0912
rfemur 537.883 -192.197 -541.246
rtibia 59.2718
rfoot -12.8858 34.598
rtoes -20.1088
lfemur 329.567 -8.0413 343.308
ltibia 73.18
lfoot -28.0018 10.4889
ltoes -36.7731
301
root -0.469162 16.4945 4.63277 -187.097 37.2079 176.887
lowerback -0.899395 6.48812 -0.877935
upperback 7.75167 9.96517 -4.99131
thorax 9.52024 5.37337 -3.8156
lowerneck 4.09262 2.16418 12.331
upperneck 6.48786 3.74523 -3.42503
head 1.70669 2.25479 -3.28934
rclavicle -1.23246e-014 -3.97569e-014
rhumerus 75.6622 11.204 -69.1138
rradius 42.3146
rwrist 22.5387
rhand -8.12054 -1.62713
rfingers 7.12502
rthumb 17.7929 -30.8331
lclavicle -1.23246e-014 -3.97569e-014
lhumerus 47.636 -18.1169 84.5571
lradius 61.9987
lwrist 71.4178
lhand -56.6116 14.4438
lfingers 7.12502
lthumb -28.9206 42.2212
rfemur 538.018 -192.08 -541.083
rtibia 58.7919
rfoot -11.4491 34.9016
rtoes -19.2814
lfemur 329.876 -8.09943 343.512
ltibia 72.591
lfoot -27.7697 10.3785
ltoes -36.6579
302
root -0.454343 16.5576 4.62316 -186.848 37.0563 177.118
lowerback -0.831585 6.50901 -1.0016
upperback 7.794 9.99627 -4.91747
thorax 9.49294 5.37718 -3.67472
lowerneck 4.11394 2.16208 12.5058
upperneck 6.34706 3.7468 -3.4409
head 1.66174 2.25326 -3.32928
rclavicle 1.27222e-014 6.20208e-014
rhumerus 75.5573 11.061 -69.3465
rradius 42.3336
rwrist 22.9062
rhand -8.57265 -1.65411
rfingers 7.12502
rthumb 17.3578 -30.899
lclavicle 1.27222e-014 6.20208e-014
lhumerus 48.0563 -18.2999 84.2166
lradius 61.6285
lwrist 71.7953
lhand -56.4166 13.6599
lfingers 7.12502
lthumb -28.7343 41.469
rfemur 538.095 -191.852 -540.941
rtibia 58.3282
rfoot -10.3681 35.0182
rtoes -19.2936
lfemur 330.147 -8.18027 343.708
ltibia 71.9092
lfoot -27.5105 10.2606
ltoes -36.6234
303
root -0.439269 16.6258 4.61506 -186.531 36.9184 177.3
lowerback -0.853077 6.53673 -1.18012
upperback 7.79482 10.0357 -4.85705
thorax 9.46523 5.37799 -3.50938
lowerneck 4.09301 2.17166 12.6661
upperneck 6.28851 3.76068 -3.42568
head 1.65151 2.26188 -3.35455
rclavicle 7.31528e-014 -9.22361e-014
rhumerus 75.5012 10.9112 -69.4865
rradius 42.3411
rwrist 23.2274
rhand -9.16111 -1.77067
rfingers 7.12502
rthumb 16.7913 -31.0646
lclavicle 7.31528e-014 -9.22361e-014
lhumerus 48.3777 -18.4606 83.9226
lradius 61.4092
lwrist 72.0575
lhand -56.1565 13.1276
lfingers 7.12502
lthumb -28.4858 40.9786
rfemur 538.065 -191.554 -540.856
rtibia 57.872
rfoot -9.1755 35.0645
rtoes -19.1304
lfemur 330.346 -8.26625 343.883
ltibia 71.1462
lfoot -27.161 10.1915
ltoes -36.5966
304
root -0.423617 16.7005 4.60795 -186.133 36.7791 177.471
lowerback -0.954459 6.56512 -1.3813
upperback 7.7594 10.073 -4.80309
thorax 9.4408 5.37288 -3.33141
lowerneck 4.16091 2.16851 12.7824
upperneck 6.16064 3.76745 -3.42095
head 1.60069 2.26325 -3.37666
rclavicle 1.1609e-013 -5.40694e-014
rhumerus 75.5525 10.739 -69.42
rradius 42.2124
rwrist 23.5028
rhand -9.75927 -1.92728
rfingers 7.12502
rthumb 16.2155 -31.2691
lclavicle 1.1609e-013 -5.40694e-014
lhumerus 48.6119 -18.6016 83.7358
lradius 61.2911
lwrist 72.1399
lhand -55.8473 12.8257
lfingers 7.12502
lthumb -28.1903 40.7258
rfemur 537.938 -191.183 -540.784
rtibia 57.4328
rfoot -8.08807 34.9926
rtoes -19.2724
lfemur 330.487 -8.33594 344.069
ltibia 70.2833
lfoot -26.7537 10.13
ltoes -36.6984
